<?xml version="1.0" encoding="utf-8" ?>
<svg xmlns="http://www.w3.org/2000/svg" xmlns:xlink="http://www.w3.org/1999/xlink" width="1024" height="1024">
	<path fill="#3C3C3B" transform="scale(2 2)" d="M267.026 100.628C285.761 77.7311 305.415 61.7458 337.362 61.7482C396.144 57.4676 441.515 123.171 418.865 179.434C416.758 184.67 414 189.533 411.187 194.414C435.338 237.046 436.996 291.777 419.823 337.305C388.498 420.355 295.862 467.092 210.227 443.379C206.335 442.301 202.467 440.837 198.521 440.004L198.174 439.933C193.289 437.792 188.264 435.971 183.412 433.751C137.288 412.646 101.607 372.605 87.6157 323.543C56.0601 212.888 139.442 99.4712 255.125 100.624C258.916 100.662 262.761 100.983 266.542 100.67L267.026 100.628ZM409.971 118.442C396.236 79.7669 350.904 61.164 313.135 74.8305C287.621 84.0627 261.508 114.355 261.722 142.476C261.375 150.019 260.9 159.176 263.696 166.268C263.502 172.446 268.243 182.622 271.285 188.08C290.175 193.221 310.861 200.688 322.873 217.248C333.403 217.431 346.89 215.309 356.176 220.782C356.651 221.352 357.254 221.852 357.798 222.36C387.384 215.604 412.132 188.328 414.784 157.999C416.088 148.411 415.626 126.974 409.971 118.442ZM401.123 206.987C389.989 217.43 380.688 223.529 366.466 229.158C365.517 229.514 364.552 229.847 363.616 230.233C365.576 236.418 364.95 243.505 364.943 249.933L364.92 267.062C364.912 269.204 364.858 271.356 364.92 273.496C367.429 273.49 370 273.38 372.504 273.496C377.604 273.935 383.276 273.51 388.449 273.507L422.366 273.496C422.522 252.47 416.468 220.902 405.428 202.132C404.081 203.817 402.571 205.389 401.123 206.987ZM140.452 267.062L140.445 240.224C140.53 220.492 151.883 217.233 168.968 217.226L182.093 217.248L188.031 217.248C204.788 199.698 226.936 186.912 251.754 187.294C252.469 180.935 251.75 170.562 251.753 163.76L251.754 109.573C164.451 107.611 89.2764 186.944 89.6999 273.496L140.452 273.496L140.452 267.062ZM200.454 217.248C203.503 217.282 206.548 217.272 209.596 217.248L301.5 217.248L311.387 217.248C282.417 188.824 229.039 187.294 200.454 217.248ZM356.176 235.774C355.157 231.39 352.714 228.686 348.913 226.598C345.049 224.475 304.168 225.661 297.395 225.661L177.516 225.661C154.479 225.66 148.993 222.03 148.985 249.01L148.98 284.456C148.979 286.925 148.757 289.584 148.991 292.033C147.562 309.194 160.327 308.198 173.272 308.204L332.528 308.205C344.467 308.202 355.424 310.361 356.176 295.054L356.169 255.321C356.169 248.828 356.444 242.253 356.176 235.774ZM393.14 281.989C383.751 281.99 374.297 282.282 364.92 281.989L364.92 288.761C364.137 319.173 353.694 316.667 327.718 317.01C310.723 339.025 288.216 350.053 260.543 353.234L260.543 440.751C267.046 440.82 273.463 440.099 279.892 439.172C358.543 427.83 419.539 361.99 422.366 281.989L393.14 281.989ZM140.452 288.761C140.419 286.505 140.348 284.244 140.452 281.989L89.6999 281.989C89.9669 303.643 98.4548 339.335 110.59 355.722C113.383 364.388 129.738 383.608 136.477 390.487C166 420.627 209.238 440.293 251.754 440.751L251.741 364.379C251.713 360.663 251.529 356.946 251.754 353.234C227.735 349.138 212.107 346.383 193.484 327.348C190.286 324.079 187.522 320.406 184.459 317.01C181.878 316.975 179.301 316.976 176.72 317.01C174.734 317.691 156.332 316.518 154.148 316.03C142.179 309.001 139.66 303.117 140.452 288.761ZM204.84 317.01C201.915 316.969 198.994 316.977 196.069 317.01C208.256 332.209 228.05 342.087 247.309 344.187C271.183 346.789 301.315 336.298 316.508 317.01L307.149 317.01L204.84 317.01Z"/>
	<path fill="#FECB5B" transform="scale(2 2)" d="M409.971 118.442C415.626 126.974 416.088 148.411 414.784 157.999C412.132 188.328 387.384 215.604 357.798 222.36C357.254 221.852 356.651 221.352 356.176 220.782C346.89 215.309 333.403 217.431 322.873 217.248C310.861 200.688 290.175 193.221 271.285 188.08C268.243 182.622 263.502 172.446 263.696 166.268C264.529 164.522 263.532 159.227 263.54 156.993C263.569 149.194 264.407 141.878 265.835 134.226C280.747 73.0604 361.244 52.972 401.172 104.679C403.687 107.935 407.903 117.465 409.354 118.689L409.971 118.442ZM331.266 87.7364C327.065 90.01 328.08 93.7153 328.496 97.8007C303.813 105.527 305.816 153.939 338.538 154.262C340.832 154.285 343.592 153.631 344.543 156.271C346.728 162.341 342.4 169.524 336.569 163.916C336.541 162.644 336.503 161.377 336.569 160.105C333.107 154.857 322.907 156.089 317.291 156.758C305.491 158.165 312.83 182.834 328.496 188.08C328.312 202.833 333.129 198.741 348.932 198.668C354.657 197.698 353.571 192.684 353.463 188.08C361.386 182.176 367.823 176.857 369.307 166.514C374.989 126.922 337.949 130.596 337.161 129.58C335.867 127.909 335.545 122.251 337.577 120.765C339.618 120.176 342.078 120.491 344.182 120.565C344.272 130.417 357.424 128.099 365.451 126.889C370.977 126.056 369.998 120.52 369.255 116.224C367.6 106.663 361.612 100.924 353.463 96.6739C353.899 94.621 353.685 92.6323 353.463 90.569C350.708 85.7021 336.392 87.225 331.266 87.7364Z"/>
	<path fill="#3C3C3B" transform="scale(2 2)" d="M328.496 97.8007C328.08 93.7153 327.065 90.01 331.266 87.7364C336.392 87.225 350.708 85.7021 353.463 90.569C353.685 92.6323 353.899 94.621 353.463 96.6739C361.612 100.924 367.6 106.663 369.255 116.224C369.998 120.52 370.977 126.056 365.451 126.889C357.424 128.099 344.272 130.417 344.182 120.565C342.078 120.491 339.618 120.176 337.577 120.765C335.545 122.251 335.867 127.909 337.161 129.58C337.949 130.596 374.989 126.922 369.307 166.514C367.823 176.857 361.386 182.176 353.463 188.08C353.571 192.684 354.657 197.698 348.932 198.668C333.129 198.741 328.312 202.833 328.496 188.08C312.83 182.834 305.491 158.165 317.291 156.758C322.907 156.089 333.107 154.857 336.569 160.105C336.503 161.377 336.541 162.644 336.569 163.916C342.4 169.524 346.728 162.341 344.543 156.271C343.592 153.631 340.832 154.285 338.538 154.262C305.816 153.939 303.813 105.527 328.496 97.8007ZM337.362 96.6739L336.896 96.8821C336.353 99.3287 336.695 102.23 336.569 104.759C322.567 106.841 318.997 118.248 320.854 131.078C324.18 154.061 350.142 137.61 353.24 154.748C357.741 179.644 330.173 178.701 328.496 165.224C325.913 165.214 323.314 165.143 320.733 165.224C320.861 174.394 328.069 180.054 336.569 181.417C336.558 184.323 336.496 187.244 336.569 190.149C338.164 190.158 339.761 190.182 341.355 190.149L344.715 190.149C344.756 187.236 344.804 184.329 344.715 181.417C358.742 178.146 363.672 165.115 360.302 151.846C355.044 131.142 331.615 145.685 328.047 131.184C326.387 124.438 327.063 114.216 335.248 112.463C343.77 110.638 349.922 110.519 353.463 118.442L360.726 118.442C359.626 109.219 353.756 104.919 344.715 104.759L344.715 96.6739C342.264 96.6387 339.813 96.5854 337.362 96.6739Z"/>
	<path fill="white" transform="scale(2 2)" d="M336.569 104.759C336.695 102.23 336.353 99.3287 336.896 96.8821L337.362 96.6739C339.813 96.5854 342.264 96.6387 344.715 96.6739L344.715 104.759C353.756 104.919 359.626 109.219 360.726 118.442L353.463 118.442C349.922 110.519 343.77 110.638 335.248 112.463C327.063 114.216 326.387 124.438 328.047 131.184C331.615 145.685 355.044 131.142 360.302 151.846C363.672 165.115 358.742 178.146 344.715 181.417C344.804 184.329 344.756 187.236 344.715 190.149L341.355 190.149C339.761 190.182 338.164 190.158 336.569 190.149C336.496 187.244 336.558 184.323 336.569 181.417C328.069 180.054 320.861 174.394 320.733 165.224C323.314 165.143 325.913 165.214 328.496 165.224C330.173 178.701 357.741 179.644 353.24 154.748C350.142 137.61 324.18 154.061 320.854 131.078C318.997 118.248 322.567 106.841 336.569 104.759Z"/>
	<path fill="#CDD07D" transform="scale(2 2)" d="M182.093 217.248L168.968 217.226C151.883 217.233 140.53 220.492 140.445 240.224L140.452 267.062C126.75 267.469 110.223 267.592 96.5298 267.062C95.9064 258.132 98.1207 248.472 100.089 239.834C109.158 200.035 133.46 164.189 167.701 141.906C187.229 129.197 221.823 114.825 246.014 116.312L246.014 181.417C228.238 182.583 209.982 190.312 196.23 201.62C193.649 203.743 181.63 214.732 181.418 216.908L182.093 217.248Z"/>
	<path fill="white" transform="scale(2 2)" d="M261.722 142.476L262.103 142.318C262.346 140.297 262.533 133.491 265.835 134.226C264.407 141.878 263.569 149.194 263.54 156.993C263.532 159.227 264.529 164.522 263.696 166.268C260.9 159.176 261.375 150.019 261.722 142.476Z"/>
	<path fill="white" transform="scale(2 2)" d="M209.596 217.248C206.548 217.272 203.503 217.282 200.454 217.248C229.039 187.294 282.417 188.824 311.387 217.248L301.5 217.248C294.198 208.721 274.064 202.622 262.921 201.638C244.759 200.034 223.78 205.425 209.596 217.248Z"/>
	<path fill="#CDD07D" transform="scale(2 2)" d="M209.596 217.248C223.78 205.425 244.759 200.034 262.921 201.638C274.064 202.622 294.198 208.721 301.5 217.248L209.596 217.248Z"/>
	<path fill="#CDD07D" transform="scale(2 2)" d="M366.466 229.158C380.688 223.529 389.989 217.43 401.123 206.987C410.242 225.81 414.402 246.314 415.972 267.062C403.415 266.887 390.833 267.064 378.273 267.062C376.351 267.103 374.426 267.072 372.504 267.062L372.527 250.632C372.535 240.213 373.304 236.993 366.466 229.158Z"/>
	<path fill="white" transform="scale(2 2)" d="M148.991 292.033C148.757 289.584 148.979 286.925 148.98 284.456L148.985 249.01C148.993 222.03 154.479 225.66 177.516 225.661L297.395 225.661C304.168 225.661 345.049 224.475 348.913 226.598C352.714 228.686 355.157 231.39 356.176 235.774C354.868 235.908 352.925 233.947 351.437 233.521C349.618 233 347.667 233.04 345.793 233.031L182.544 233.031C155.765 233.032 156.991 230.808 156.994 261.049L157.003 300.024C153.696 298.167 150.38 295.683 148.991 292.033Z"/>
	<path fill="#B2AE4B" transform="scale(2 2)" d="M363.616 230.233C364.552 229.847 365.517 229.514 366.466 229.158C373.304 236.993 372.535 240.213 372.527 250.632L372.504 267.062C369.958 267.31 367.468 267.23 364.92 267.062L364.943 249.933C364.95 243.505 365.576 236.418 363.616 230.233Z"/>
	<path fill="#6BC6C1" transform="scale(2 2)" d="M356.176 235.774C356.444 242.253 356.169 248.828 356.169 255.321L356.176 295.054C353.308 296.435 351.066 299.039 347.841 299.614C342.87 300.5 337.19 300.036 332.136 300.035L171.879 300.018C166.978 300.01 161.869 299.588 157.003 300.024L156.994 261.049C156.991 230.808 155.765 233.032 182.544 233.031L345.793 233.031C347.667 233.04 349.618 233 351.437 233.521C352.925 233.947 354.868 235.908 356.176 235.774ZM182.093 243.337C171.356 244.61 170.682 252.489 171.879 261.886C172.791 269.046 182.055 269.935 187.277 272.754C187.221 275.127 187.688 280.242 185.856 281.957C180.231 287.221 178.621 278.419 178.711 274.334C176.373 274.319 174.036 274.301 171.699 274.334C170.629 283.86 173.664 290.634 184.459 289.909C194.253 288.702 195.557 280.312 194.385 271.786C193.434 264.864 183.713 263.942 178.711 261.162C179.109 256.626 177.382 249.521 184.179 250.283C185.67 250.45 186.383 251.36 187.277 252.458C187.273 254.468 187.209 256.499 187.277 258.507C189.701 258.599 192.078 258.639 194.503 258.507C195.086 250.092 192.089 242.076 182.093 243.337ZM211.633 243.917L208.578 243.917C206.216 249.819 198.605 282.284 198.174 289.181C200.387 289.198 202.631 289.294 204.84 289.181C205.431 286.397 206.045 283.66 206.871 280.933C208.768 280.831 210.606 280.777 212.501 280.933C213.87 280.899 215.236 280.841 216.603 280.933C217.236 283.675 217.815 286.427 218.39 289.181C220.821 289.191 223.255 289.231 225.685 289.181C223.169 278.142 217.527 254.258 216.603 243.917C214.95 243.896 213.285 243.839 211.633 243.917ZM232.258 243.917C228.492 244.769 230.214 256.437 230.216 260.224L230.221 289.181L248.813 289.181L249.584 289.114C250.471 287.625 249.798 283.761 249.814 281.989C246.038 282.479 241.82 281.95 237.989 281.989C237.624 273.316 238.46 244.909 237.699 244.277C236.604 243.366 233.675 243.821 232.258 243.917ZM262.925 243.917C260.172 247.148 259.862 253.338 259.029 257.333L254.652 277.509C253.777 281.394 253.042 285.412 251.754 289.181L260.543 289.181C260.323 286.14 260.718 283.802 261.722 280.933L270.562 280.933L271.098 281.131C272.107 283.578 272.525 286.598 273.138 289.181L280.708 289.181C277.251 275.073 273.18 258.117 270.562 243.917C268.017 243.793 265.47 243.71 262.925 243.917ZM284.997 243.917C284.448 246.028 284.989 252.099 284.993 254.59L284.997 289.181L292.965 289.181C292.951 283.026 292.843 276.852 292.965 270.699C294.187 270.691 295.422 270.645 296.643 270.699C298.263 275.202 300.138 279.702 301.5 284.286C302.296 285.901 302.951 287.452 303.457 289.181C306.12 289.063 308.722 289.059 311.387 289.181C308.651 283.097 306.656 276.548 303.457 270.699C306.131 268.521 308.32 266.63 308.695 262.962C310.993 240.439 301.439 244.013 284.997 243.917ZM312.233 243.917C309.322 245.494 314.49 253.228 315.505 255.373C323.435 272.121 321.939 270.674 321.989 289.181C324.407 289.052 326.77 289.016 329.187 289.181C329.162 281.021 327.857 272.727 331.266 265.095C332.618 261.99 339.943 247.017 339.658 244.823C338.102 243.592 334.963 243.908 333.043 243.917C330.037 249.114 328.247 254.937 325.392 260.223C322.81 254.957 320.934 249.313 318.627 243.917L312.233 243.917Z"/>
	<path fill="#3C3C3B" transform="scale(2 2)" d="M187.277 272.754C182.055 269.935 172.791 269.046 171.879 261.886C170.682 252.489 171.356 244.61 182.093 243.337C192.089 242.076 195.086 250.092 194.503 258.507C192.078 258.639 189.701 258.599 187.277 258.507C187.209 256.499 187.273 254.468 187.277 252.458C186.383 251.36 185.67 250.45 184.179 250.283C177.382 249.521 179.109 256.626 178.711 261.162C183.713 263.942 193.434 264.864 194.385 271.786C195.557 280.312 194.253 288.702 184.459 289.909C173.664 290.634 170.629 283.86 171.699 274.334C174.036 274.301 176.373 274.319 178.711 274.334C178.621 278.419 180.231 287.221 185.856 281.957C187.688 280.242 187.221 275.127 187.277 272.754Z"/>
	<path fill="#3C3C3B" transform="scale(2 2)" d="M208.578 243.917L211.633 243.917C213.285 243.839 214.95 243.896 216.603 243.917C217.527 254.258 223.169 278.142 225.685 289.181C223.255 289.231 220.821 289.191 218.39 289.181C217.815 286.427 217.236 283.675 216.603 280.933C215.236 280.841 213.87 280.899 212.501 280.933C210.606 280.777 208.768 280.831 206.871 280.933C206.045 283.66 205.431 286.397 204.84 289.181C202.631 289.294 200.387 289.198 198.174 289.181C198.605 282.284 206.216 249.819 208.578 243.917ZM212.501 258.507C210.519 263.271 209.793 268.499 208.578 273.496L211.633 273.496L215.116 273.496C214.69 270.958 213.327 259.838 212.501 258.507Z"/>
	<path fill="#3C3C3B" transform="scale(2 2)" d="M230.221 289.181L230.216 260.224C230.214 256.437 228.492 244.769 232.258 243.917C233.675 243.821 236.604 243.366 237.699 244.277C238.46 244.909 237.624 273.316 237.989 281.989C241.82 281.95 246.038 282.479 249.814 281.989C249.798 283.761 250.471 287.625 249.584 289.114L248.813 289.181L230.221 289.181Z"/>
	<path fill="#3C3C3B" transform="scale(2 2)" d="M251.754 289.181C253.042 285.412 253.777 281.394 254.652 277.509L259.029 257.333C259.862 253.338 260.172 247.148 262.925 243.917C265.47 243.71 268.017 243.793 270.562 243.917C273.18 258.117 277.251 275.073 280.708 289.181L273.138 289.181C272.525 286.598 272.107 283.578 271.098 281.131L270.562 280.933L261.722 280.933C260.718 283.802 260.323 286.14 260.543 289.181L251.754 289.181ZM267.026 258.507C264.754 263.227 263.979 268.401 262.925 273.496L267.026 273.496L269.69 273.496C268.925 269.9 267.839 261.206 267.026 258.507Z"/>
	<path fill="#3C3C3B" transform="scale(2 2)" d="M284.997 289.181L284.993 254.59C284.989 252.099 284.448 246.028 284.997 243.917C301.439 244.013 310.993 240.439 308.695 262.962C308.32 266.63 306.131 268.521 303.457 270.699C306.656 276.548 308.651 283.097 311.387 289.181C308.722 289.059 306.12 289.063 303.457 289.181C302.951 287.452 302.296 285.901 301.5 284.286C300.138 279.702 298.263 275.202 296.643 270.699C295.422 270.645 294.187 270.691 292.965 270.699C292.843 276.852 292.951 283.026 292.965 289.181L284.997 289.181ZM292.965 250.748L292.965 264.273C295.737 264.299 298.087 264.477 300.541 262.984C301.821 260.96 301.913 255.818 301.409 253.482C300.565 249.566 295.951 250.661 292.965 250.748Z"/>
	<path fill="#3C3C3B" transform="scale(2 2)" d="M321.989 289.181C321.939 270.674 323.435 272.121 315.505 255.373C314.49 253.228 309.322 245.494 312.233 243.917L318.627 243.917C320.934 249.313 322.81 254.957 325.392 260.223C328.247 254.937 330.037 249.114 333.043 243.917C334.963 243.908 338.102 243.592 339.658 244.823C339.943 247.017 332.618 261.99 331.266 265.095C327.857 272.727 329.162 281.021 329.187 289.181C326.77 289.016 324.407 289.052 321.989 289.181Z"/>
	<path fill="#6BC6C1" transform="scale(2 2)" d="M292.965 264.273L292.965 250.748C295.951 250.661 300.565 249.566 301.409 253.482C301.913 255.818 301.821 260.96 300.541 262.984C298.087 264.477 295.737 264.299 292.965 264.273Z"/>
	<path fill="#6BC6C1" transform="scale(2 2)" d="M208.578 273.496C209.793 268.499 210.519 263.271 212.501 258.507C213.327 259.838 214.69 270.958 215.116 273.496L211.633 273.496L208.578 273.496Z"/>
	<path fill="#6BC6C1" transform="scale(2 2)" d="M262.925 273.496C263.979 268.401 264.754 263.227 267.026 258.507C267.839 261.206 268.925 269.9 269.69 273.496L267.026 273.496L262.925 273.496Z"/>
	<path fill="white" transform="scale(2 2)" d="M364.92 267.062C367.468 267.23 369.958 267.31 372.504 267.062C374.426 267.072 376.351 267.103 378.273 267.062C376.366 267.346 374.42 267.202 372.504 267.062C372.361 269.225 372.402 271.331 372.504 273.496C370 273.38 367.429 273.49 364.92 273.496C364.858 271.356 364.912 269.204 364.92 267.062Z"/>
	<path fill="#B34847" transform="scale(2 2)" d="M364.92 288.761C367.615 288.427 369.817 288.312 372.504 288.761C372.565 307.792 369.608 324.523 346.291 324.538C343.236 324.54 333.337 325.13 331.266 323.571C332.971 321.316 334.692 319.126 336.569 317.01C333.702 317.156 330.548 317.511 327.718 317.01C353.694 316.667 364.137 319.173 364.92 288.761Z"/>
	<path fill="#6BC6C1" transform="scale(2 2)" d="M96.5298 288.761L140.452 288.761C139.66 303.117 142.179 309.001 154.148 316.03C155.705 322.166 175.364 324.177 180.427 322.721C195.486 338.131 204.992 348.502 227.486 355.261C233.314 357.012 239.478 357.496 245.226 359.377C244.892 367.42 245.229 375.591 245.227 383.648L245.226 433.929C195.352 431.061 144.813 400.676 119.025 357.738C117.76 355.632 113.045 346.233 112.16 345.452C111.307 343.243 110.089 341.113 109.096 338.957C100.244 319.735 100.171 307.696 96.5298 288.761Z"/>
	<path fill="#FD7069" transform="scale(2 2)" d="M372.504 288.761C386.804 289.066 401.176 288.761 415.483 288.761C413.96 299.657 412.448 310.402 409.452 321.019C391.662 384.066 331.596 429.31 267.026 433.929L267.026 359.377C286.85 355.998 304.879 348.21 320.048 334.838C324.012 331.344 327.241 326.909 331.266 323.571C333.337 325.13 343.236 324.54 346.291 324.538C369.608 324.523 372.565 307.792 372.504 288.761Z"/>
	<path fill="#0D9BA6" transform="scale(2 2)" d="M148.991 292.033C150.38 295.683 153.696 298.167 157.003 300.024C161.869 299.588 166.978 300.01 171.879 300.018L332.136 300.035C337.19 300.036 342.87 300.5 347.841 299.614C351.066 299.039 353.308 296.435 356.176 295.054C355.424 310.361 344.467 308.202 332.528 308.205L173.272 308.204C160.327 308.198 147.562 309.194 148.991 292.033Z"/>
	<path fill="#0D9BA6" transform="scale(2 2)" d="M154.148 316.03C156.332 316.518 174.734 317.691 176.72 317.01C177.254 318.897 179.374 321.008 180.427 322.721C175.364 324.177 155.705 322.166 154.148 316.03Z"/>
	<path fill="white" transform="scale(2 2)" d="M176.72 317.01C179.301 316.976 181.878 316.975 184.459 317.01C187.522 320.406 190.286 324.079 193.484 327.348C212.107 346.383 227.735 349.138 251.754 353.234C251.529 356.946 251.713 360.663 251.741 364.379L251.754 440.751C209.238 440.293 166 420.627 136.477 390.487C129.738 383.608 113.383 364.388 110.59 355.722C111.365 353.541 108.679 347.48 112.733 348.269L113.005 348.325C113.389 347.814 112.096 346.322 112.16 345.452C113.045 346.233 117.76 355.632 119.025 357.738C144.813 400.676 195.352 431.061 245.226 433.929L245.227 383.648C245.229 375.591 244.892 367.42 245.226 359.377C239.478 357.496 233.314 357.012 227.486 355.261C204.992 348.502 195.486 338.131 180.427 322.721C179.374 321.008 177.254 318.897 176.72 317.01Z"/>
	<path fill="white" transform="scale(2 2)" d="M196.069 317.01C198.994 316.977 201.915 316.969 204.84 317.01C206.202 318.339 207.286 319.932 208.725 321.182C232.384 341.739 267.982 343.58 294.483 327.367C298.971 324.621 303.98 321.326 307.149 317.01L316.508 317.01C301.315 336.298 271.183 346.789 247.309 344.187C228.05 342.087 208.256 332.209 196.069 317.01Z"/>
	<path fill="#6BC6C1" transform="scale(2 2)" d="M204.84 317.01L307.149 317.01C303.98 321.326 298.971 324.621 294.483 327.367C267.982 343.58 232.384 341.739 208.725 321.182C207.286 319.932 206.202 318.339 204.84 317.01Z"/>
</svg>
